<svg xmlns="http://www.w3.org/2000/svg"  viewBox="0 0 64 64" width="128px" height="128px"><path fill="#628dc5" d="M50,62V53a2,2,0,0,1,2-2h8a2,2,0,0,1,2,2v9Z"/><circle cx="56" cy="47.5" r="3.5" fill="#e6b374"/><path fill="#6f9fde" d="M26,62V53a2,2,0,0,1,2-2h8a2,2,0,0,1,2,2v9Z"/><circle cx="32" cy="47.5" r="3.5" fill="#ffc780"/><path fill="#7cb1f7" d="M2,62V53a2,2,0,0,1,2-2h8a2,2,0,0,1,2,2v9Z"/><circle cx="8" cy="47.5" r="3.5" fill="#ffd39c"/><path fill="#a2bfe6" d="M58.293,34.293,57,35.586V13a1,1,0,0,0-1-1H43v2H55V27H8a1,1,0,0,0-1,1v7.586L5.707,34.293,4.293,35.707l3,3a1,1,0,0,0,1.414,0l3-3-1.414-1.414L9,35.586V29H31v6.586l-1.293-1.293-1.414,1.414,3,3a1,1,0,0,0,1.414,0l3-3-1.414-1.414L33,35.586V29H55v6.586l-1.293-1.293-1.414,1.414,3,3a1,1,0,0,0,1.414,0l3-3Z"/><rect width="2" height="2" x="38" y="12" fill="#a2bfe6"/><polygon fill="#d98286" points="31 4 26 4 26 1 9 1 9 18 14 18 26 18 35 18 35 9 31 4"/><path fill="#bf7376" d="M31,4H26V1H24V14a2,2,0,0,1-2,2H9v2H35V9Z"/><polygon fill="#d9e1e6" points="26 4 31 4 35 9 35 18 26 18 26 4"/><path fill="#c0c8cc" d="M31,4h-.4l1.962,2.452A2,2,0,0,1,33,7.7V14a2,2,0,0,1-2,2H26v2h9V9Z"/><polygon fill="#c9e6fb" points="35 9 28 9 28 4 31 4 35 9"/><path fill="#b0dcfb" d="M31,4H29.879l1.9,2.375A1,1,0,0,1,31,8H28V9h7Z"/><circle cx="15" cy="18" r="2.5" fill="#6c7e99"/><circle cx="30.5" cy="18" r="2.5" fill="#6c7e99"/><rect width="4" height="2" x="3" y="4" fill="#ccd4d9"/><rect width="4" height="2" x="3" y="12" fill="#ccd4d9"/><rect width="5" height="2" x="1" y="8" fill="#ccd4d9"/></svg>