<svg xmlns="http://www.w3.org/2000/svg"  viewBox="0 0 40 40" width="160px" height="160px"><path fill="#ece8f7" d="M1.5 5.5H38.5V34.5H1.5z"/><path fill="#8b75a1" d="M38,6V34H2V6H38m1-1H1V35H39V5Z"/><path fill="#8b75a1" d="M9 10H31V12H9zM9 14H31V15H9z"/><path fill="#8bb7f0" d="M19.71 26L23 22.71 27.79 27.5 24.5 27.5 24.5 30.79 19.71 26z"/><path fill="#4e7ab5" d="M23,23.41,26.59,27H24v2.59L20.41,26,23,23.41M23,22l-4,4,6,6V28h4l-6-6Z"/><path fill="#8bb7f0" d="M15.5 27.5L12.21 27.5 17 22.71 20.29 26 15.5 30.79 15.5 27.5z"/><path fill="#4e7ab5" d="M17,23.41,19.59,26,16,29.59V27H13.41L17,23.41M17,22l-6,6h4v4l6-6-4-4Z"/><path fill="#f78f8f" d="M20 19.5A3.5 3.5 0 1 0 20 26.5A3.5 3.5 0 1 0 20 19.5Z"/><path fill="#c74343" d="M20,20a3,3,0,1,1-3,3,3,3,0,0,1,3-3m0-1a4,4,0,1,0,4,4,4,4,0,0,0-4-4Z"/><path fill="#8b75a1" d="M34 5a5 5 0 0 0 5 5V5zM6 35a5 5 0 0 0-5-5v5zM34 35a5 5 0 0 1 5-5v5zM6 5a5 5 0 0 1-5 5V5z"/></svg>