<svg xmlns="http://www.w3.org/2000/svg"  viewBox="0 0 512 512" width="128px" height="128px"><rect width="29.93" height="69.32" x="249.36" y="129.25" fill="#b55d74"/><path fill="#e87187" d="M285.8,197H242.85A15.491,15.491,0,0,0,227,212.47V230h75V212.47C302,203.69,294.58,197,285.8,197Z"/><rect width="53" height="34" x="423" y="384" fill="#b0b5ca"/><path fill="#ccd3df" d="M110,269v53h75.83c-.02,0,.17-.56,2.17-1.08V269Z"/><path fill="#ccd3df" d="M374.25,269H339l-.19,53h35.44c26.67,0,48.75,22.18,48.75,48.86V384h53V370.86C476,314.75,430.35,269,374.25,269Z"/><path fill="#6d6d93" d="M89.34,219H66V373H89.34c12.74,0,22.66-10.81,22.66-23.56V242.15C112,229.4,102.08,219,89.34,219Z"/><rect width="30" height="154" x="36" y="219" fill="#978cac"/><path fill="#b0b5ca" d="M302.84,229H225.8A39.74,39.74,0,0,0,186,268.9v.1l-.07,53.47A39.98,39.98,0,0,0,225.8,361h77.04a40.141,40.141,0,0,0,40.05-38.53L343,269v-.1A40.047,40.047,0,0,0,302.84,229Z"/><path fill="#e87187" d="M381.66,118.28c-1.97-13.93-14.4-24.09-28.47-23.84a28.124,28.124,0,0,0-16.78,5.945C327.27,107.5,316.28,112,304.71,112H223.87c-11.54,0-22.51-4.5-31.61-11.595a27.923,27.923,0,0,0-16.63-5.852c-14.11-.33-26.61,9.818-28.63,23.788a28.219,28.219,0,0,0,45.48,26.027A51.33,51.33,0,0,1,224.49,133h79.69a51.184,51.184,0,0,1,31.93,11.285,28.313,28.313,0,0,0,45.55-26Z"/><path fill="#9095a5" d="M215.93,322.47,216,269v-.1A39.74,39.74,0,0,1,255.8,229h-30A39.74,39.74,0,0,0,186,268.9v.1l-.07,53.47A39.98,39.98,0,0,0,225.8,361h30A39.98,39.98,0,0,1,215.93,322.47Z"/><path fill="#f4f8fc" d="M214.882,328.4a6,6,0,0,1-6-6v-37.32a6,6,0,0,1,12,0V322.4A6,6,0,0,1,214.882,328.4Z"/><path fill="#f4f8fc" d="M214.882,269.741a6,6,0,0,1-6-6v-6.268a6,6,0,0,1,12,0v6.268A6,6,0,0,1,214.882,269.741Z"/></svg>